<?xml version="1.0" standalone="no"?><!DOCTYPE svg PUBLIC "-//W3C//DTD SVG 1.1//EN" "http://www.w3.org/Graphics/SVG/1.1/DTD/svg11.dtd"><svg t="1619783429176" class="icon" viewBox="0 0 1024 1024" version="1.1" xmlns="http://www.w3.org/2000/svg" p-id="3070" xmlns:xlink="http://www.w3.org/1999/xlink" width="200" height="200"><defs><style type="text/css"></style></defs><path d="M512 1024C229.233778 1024 0 794.766222 0 512S229.233778 0 512 0s512 229.233778 512 512-229.233778 512-512 512z m306.915556-619.008a87.509333 87.509333 0 0 0-18.574223-33.066667c-8.419556-9.358222-19.100444-16.682667-32.028444-21.973333-12.913778-5.290667-28.273778-7.964444-46.051556-7.964444h-76.273777a28.444444 28.444444 0 0 0-28.444445 28.444444V662.613333a24.192 24.192 0 0 0 48.384 0v-112.312889h46.762667c20.096 0 37.233778-2.545778 51.427555-7.608888 14.193778-5.048889 25.770667-12.188444 34.830223-21.390223a82.545778 82.545778 0 0 0 19.768888-32.952889c4.096-12.771556 6.172444-26.88 6.172445-42.311111 0-14.648889-1.976889-28.316444-5.973333-41.031111z m-61.724445 89.543111c-10.183111 10.368-25.031111 15.544889-44.515555 15.544889h-46.279112V381.724444h40.206223c12.16 0 23.466667 1.792 34.033777 5.376a42.168889 42.168889 0 0 1 23.836445 19.754667c5.347556 9.585778 8.049778 22.471111 8.049778 38.684445 0 22.286222-5.105778 38.613333-15.317334 48.981333z m-431.146667 121.898667l-68.437333-249.528889a33.863111 33.863111 0 0 0-32.668444-24.903111 19.299556 19.299556 0 0 0-18.503111 24.775111l87.537777 296.149333a33.322667 33.322667 0 0 0 31.957334 23.864889 33.379556 33.379556 0 0 0 32-23.850667l88.547555-297.528888a18.204444 18.204444 0 0 0-17.464889-23.409778c-14.464 0-27.164444 9.585778-31.146666 23.480889l-71.822223 250.951111z m191.800889-274.432c-13.368889 0-24.192 10.823111-24.192 24.192v296.405333a24.192 24.192 0 0 0 48.384 0V366.193778c0-13.368889-10.837333-24.192-24.192-24.192z" fill="#D7A26A" p-id="3071"></path></svg>